<svg width="764" height="117" viewBox="0 0 764 117" fill="none" xmlns="http://www.w3.org/2000/svg">
<path d="M92.0986 5.34242L92.1686 5.34211L92.1683 5.27212L92.0983 5.27242L92.0986 5.34242ZM92.5684 114.432L92.5687 114.502L92.6387 114.502L92.6384 114.432L92.5684 114.432ZM72.6467 114.518L72.5893 114.558L72.6103 114.588L72.647 114.588L72.6467 114.518ZM24.8905 46.0619L24.9479 46.0218L24.9269 45.9917L24.8902 45.9919L24.8905 46.0619ZM24.0915 46.0653L24.0912 45.9953L24.0212 45.9956L24.0215 46.0656L24.0915 46.0653ZM24.3872 114.726L24.3875 114.796L24.4575 114.796L24.4572 114.726L24.3872 114.726ZM1.32276 114.825L1.25277 114.826L1.25307 114.896L1.32307 114.895L1.32276 114.825ZM0.853022 5.73532L0.852721 5.66532L0.782722 5.66562L0.783023 5.73562L0.853022 5.73532ZM21.0943 5.64816L21.1519 5.6083L21.1309 5.578L21.094 5.57816L21.0943 5.64816ZM68.4774 74.0527L68.4198 74.0926L68.4408 74.1229L68.4777 74.1227L68.4774 74.0527ZM69.4362 74.0486L69.4365 74.1186L69.5065 74.1183L69.5062 74.0483L69.4362 74.0486ZM69.1407 5.44127L69.1404 5.37127L69.0704 5.37158L69.0707 5.44157L69.1407 5.44127ZM92.0286 5.34272L92.4984 114.433L92.6384 114.432L92.1686 5.34211L92.0286 5.34272ZM92.5681 114.362L72.6464 114.448L72.647 114.588L92.5687 114.502L92.5681 114.362ZM72.7041 114.478L24.9479 46.0218L24.8331 46.1019L72.5893 114.558L72.7041 114.478ZM24.8902 45.9919L24.0912 45.9953L24.0918 46.1353L24.8908 46.1319L24.8902 45.9919ZM24.0215 46.0656L24.3172 114.726L24.4572 114.726L24.1615 46.065L24.0215 46.0656ZM24.3869 114.656L1.32246 114.755L1.32307 114.895L24.3875 114.796L24.3869 114.656ZM1.39276 114.825L0.923022 5.73502L0.783023 5.73562L1.25277 114.826L1.39276 114.825ZM0.853324 5.80532L21.0946 5.71816L21.094 5.57816L0.852721 5.66532L0.853324 5.80532ZM21.0368 5.68802L68.4198 74.0926L68.5349 74.0129L21.1519 5.6083L21.0368 5.68802ZM68.4777 74.1227L69.4365 74.1186L69.4359 73.9786L68.4771 73.9827L68.4777 74.1227ZM69.5062 74.0483L69.2107 5.44097L69.0707 5.44157L69.3662 74.0489L69.5062 74.0483ZM69.141 5.51127L92.0989 5.41242L92.0983 5.27242L69.1404 5.37127L69.141 5.51127ZM134.219 5.16104L134.289 5.16074L134.289 5.09074L134.219 5.09105L134.219 5.16104ZM134.689 114.251L134.689 114.321L134.759 114.321L134.759 114.251L134.689 114.251ZM111.624 114.35L111.554 114.351L111.555 114.421L111.625 114.42L111.624 114.35ZM111.155 5.26036L111.154 5.19036L111.084 5.19066L111.085 5.26066L111.155 5.26036ZM134.149 5.16135L134.619 114.251L134.759 114.251L134.289 5.16074L134.149 5.16135ZM134.689 114.181L111.624 114.28L111.625 114.42L134.689 114.321L134.689 114.181ZM111.694 114.35L111.225 5.26006L111.085 5.26066L111.554 114.351L111.694 114.35ZM111.155 5.33036L134.219 5.23104L134.219 5.09105L111.154 5.19036L111.155 5.33036ZM174.822 4.98621L174.882 4.95031L174.861 4.91604L174.821 4.91621L174.822 4.98621ZM196.981 42.0715L196.921 42.1074L196.941 42.1417L196.981 42.1415L196.981 42.0715ZM197.833 42.0679L197.833 42.1379L197.873 42.1377L197.893 42.1034L197.833 42.0679ZM219.779 4.79262L219.778 4.72263L219.738 4.7228L219.718 4.75711L219.779 4.79262ZM245.826 4.68046L245.886 4.71668L245.95 4.60993L245.826 4.61047L245.826 4.68046ZM212.769 59.3688L212.709 59.3326L212.687 59.3695L212.71 59.4061L212.769 59.3688ZM247.041 113.767L247.042 113.837L247.168 113.837L247.101 113.73L247.041 113.767ZM220.515 113.881L220.455 113.918L220.475 113.952L220.515 113.951L220.515 113.881ZM197.982 76.7444L198.042 76.7081L198.022 76.6742L197.982 76.6744L197.982 76.7444ZM197.13 76.7481L197.13 76.6781L197.09 76.6782L197.07 76.7123L197.13 76.7481ZM174.918 114.078L174.919 114.148L174.958 114.148L174.979 114.114L174.918 114.078ZM148.498 114.191L148.439 114.155L148.372 114.262L148.499 114.261L148.498 114.191ZM182.407 59.4995L182.467 59.5364L182.49 59.4995L182.467 59.4626L182.407 59.4995ZM148.668 5.09883L148.667 5.02883L148.542 5.02937L148.608 5.13572L148.668 5.09883ZM174.761 5.02212L196.921 42.1074L197.041 42.0356L174.882 4.95031L174.761 5.02212ZM196.981 42.1415L197.833 42.1379L197.833 41.9979L196.98 42.0015L196.981 42.1415ZM197.893 42.1034L219.839 4.82814L219.718 4.75711L197.773 42.0324L197.893 42.1034ZM219.779 4.86262L245.826 4.75046L245.826 4.61047L219.778 4.72263L219.779 4.86262ZM245.766 4.64425L212.709 59.3326L212.829 59.405L245.886 4.71668L245.766 4.64425ZM212.71 59.4061L246.982 113.804L247.101 113.73L212.828 59.3315L212.71 59.4061ZM247.041 113.697L220.514 113.811L220.515 113.951L247.042 113.837L247.041 113.697ZM220.574 113.845L198.042 76.7081L197.923 76.7807L220.455 113.918L220.574 113.845ZM197.982 76.6744L197.13 76.6781L197.13 76.8181L197.983 76.8144L197.982 76.6744ZM197.07 76.7123L174.858 114.042L174.979 114.114L197.19 76.7839L197.07 76.7123ZM174.918 114.008L148.498 114.121L148.499 114.261L174.919 114.148L174.918 114.008ZM148.558 114.228L182.467 59.5364L182.348 59.4626L148.439 114.155L148.558 114.228ZM182.467 59.4626L148.727 5.06193L148.608 5.13572L182.348 59.5364L182.467 59.4626ZM148.668 5.16883L174.822 5.05621L174.821 4.91621L148.667 5.02883L148.668 5.16883ZM349.142 89.144L349.081 89.111L349.081 89.1112L349.142 89.144ZM330.901 108.346L330.936 108.406L330.936 108.406L330.901 108.346ZM278.806 108.517L278.841 108.456L278.806 108.517ZM260.453 89.4727L260.392 89.506L260.392 89.506L260.453 89.4727ZM260.192 28.8021L260.254 28.8349L260.254 28.8349L260.192 28.8021ZM278.38 9.65397L278.415 9.71472L278.415 9.7146L278.38 9.65397ZM330.475 9.42965L330.441 9.49058L330.441 9.49077L330.475 9.42965ZM348.881 28.4202L348.819 28.4535L348.82 28.4537L348.881 28.4202ZM328.846 39.373L328.782 39.4009L328.782 39.4013L328.846 39.373ZM319.153 27.3763L319.115 27.4349L319.115 27.4349L319.153 27.3763ZM289.963 27.502L290.002 27.5603L290.002 27.5603L289.963 27.502ZM280.32 39.582L280.256 39.5543L280.256 39.5546L280.32 39.582ZM280.488 78.5731L280.424 78.601L280.424 78.6014L280.488 78.5731ZM290.235 90.5696L290.273 90.511L290.273 90.511L290.235 90.5696ZM319.425 90.4439L319.386 90.3856L319.386 90.3856L319.425 90.4439ZM329.014 78.3641L328.95 78.3364L328.95 78.3368L329.014 78.3641ZM355.707 58.7533C355.758 70.6408 353.548 80.759 349.081 89.111L349.204 89.1771C353.685 80.8 355.898 70.6576 355.847 58.7527L355.707 58.7533ZM349.081 89.1112C344.648 97.4647 338.576 103.855 330.866 108.285L330.936 108.406C338.671 103.963 344.76 97.5521 349.204 89.1769L349.081 89.1112ZM330.866 108.285C323.191 112.679 314.547 114.898 304.935 114.939L304.936 115.079C314.57 115.038 323.237 112.814 330.936 108.406L330.866 108.285ZM304.935 114.939C295.251 114.981 286.554 112.819 278.841 108.456L278.772 108.578C286.508 112.954 295.23 115.121 304.936 115.079L304.935 114.939ZM278.841 108.456C271.128 104.092 265.019 97.7544 260.515 89.4393L260.392 89.506C264.908 97.8426 271.035 104.201 278.772 108.578L278.841 108.456ZM260.515 89.4393C256.011 81.1259 253.732 71.0446 253.681 59.1926L253.541 59.1932C253.592 71.0626 255.875 81.1678 260.392 89.506L260.515 89.4393ZM253.681 59.1926C253.63 47.305 255.822 37.1868 260.254 28.8349L260.13 28.7693C255.685 37.1461 253.49 47.2884 253.541 59.1932L253.681 59.1926ZM260.254 28.8349C264.687 20.4814 270.74 14.1087 278.415 9.71472L278.346 9.59322C270.646 14.0013 264.575 20.3941 260.13 28.7693L260.254 28.8349ZM278.415 9.7146C286.091 5.28469 294.769 3.04822 304.453 3.00652L304.452 2.86653C294.747 2.90832 286.044 5.15015 278.345 9.59335L278.415 9.7146ZM304.453 3.00652C314.065 2.96513 322.727 5.12689 330.441 9.49058L330.51 9.36873C322.773 4.99204 314.087 2.82504 304.452 2.86653L304.453 3.00652ZM330.441 9.49077C338.189 13.8184 344.315 20.1386 348.819 28.4535L348.943 28.3868C344.426 20.0501 338.282 13.71 330.509 9.36854L330.441 9.49077ZM348.82 28.4537C353.359 36.7669 355.655 46.8658 355.707 58.7533L355.847 58.7527C355.795 46.8478 353.495 36.7248 348.942 28.3866L348.82 28.4537ZM332.463 58.8534C332.429 51.1409 331.246 44.6372 328.91 39.3448L328.782 39.4013C331.108 44.6713 332.289 51.1547 332.323 58.854L332.463 58.8534ZM328.91 39.3451C326.61 34.0532 323.371 30.0427 319.191 27.3177L319.115 27.4349C323.268 30.1428 326.491 34.1301 328.782 39.4009L328.91 39.3451ZM319.191 27.3177C315.012 24.5928 310.127 23.2436 304.54 23.2676L304.541 23.4076C310.104 23.3837 314.961 24.7268 319.115 27.4349L319.191 27.3177ZM304.54 23.2676C298.953 23.2917 294.08 24.683 289.924 27.4437L290.002 27.5603C294.132 24.8165 298.978 23.4316 304.541 23.4076L304.54 23.2676ZM289.924 27.4437C285.768 30.2046 282.546 34.2428 280.256 39.5543L280.385 39.6097C282.666 34.319 285.872 30.3039 290.002 27.5603L289.924 27.4437ZM280.256 39.5546C278.001 44.8667 276.892 51.3802 276.925 59.0925L277.065 59.0919C277.032 51.3925 278.14 44.8991 280.385 39.6093L280.256 39.5546ZM276.925 59.0925C276.959 66.8049 278.124 73.3085 280.424 78.601L280.553 78.5452C278.262 73.275 277.098 66.7913 277.065 59.0919L276.925 59.0925ZM280.424 78.6014C282.76 83.8929 286.017 87.9032 290.196 90.6282L290.273 90.511C286.119 87.803 282.879 83.8157 280.552 78.5448L280.424 78.6014ZM290.196 90.6282C294.376 93.353 299.26 94.7023 304.848 94.6783L304.847 94.5383C299.284 94.5622 294.427 93.2191 290.273 90.511L290.196 90.6282ZM304.848 94.6783C310.435 94.6542 315.308 93.2629 319.463 90.5022L319.386 90.3856C315.256 93.1294 310.41 94.5143 304.847 94.5383L304.848 94.6783ZM319.463 90.5022C323.62 87.7412 326.824 83.703 329.079 78.3915L328.95 78.3368C326.704 83.6271 323.516 87.6421 319.386 90.3856L319.463 90.5022ZM329.078 78.3919C331.369 73.0795 332.496 66.5658 332.463 58.8534L332.323 58.854C332.356 66.5533 331.23 73.0466 328.95 78.3364L329.078 78.3919ZM463.873 3.74155L463.943 3.74125L463.942 3.67125L463.872 3.67155L463.873 3.74155ZM464.342 112.831L464.343 112.901L464.413 112.901L464.412 112.831L464.342 112.831ZM444.421 112.917L444.363 112.957L444.384 112.987L444.421 112.987L444.421 112.917ZM396.664 44.461L396.722 44.421L396.701 44.3909L396.664 44.391L396.664 44.461ZM395.865 44.4645L395.865 44.3945L395.795 44.3948L395.795 44.4648L395.865 44.4645ZM396.161 113.125L396.161 113.195L396.231 113.195L396.231 113.125L396.161 113.125ZM373.097 113.224L373.027 113.225L373.027 113.295L373.097 113.294L373.097 113.224ZM372.627 4.13446L372.627 4.06446L372.557 4.06476L372.557 4.13476L372.627 4.13446ZM392.868 4.0473L392.926 4.00744L392.905 3.97714L392.868 3.9773L392.868 4.0473ZM440.251 72.4519L440.194 72.4917L440.215 72.522L440.252 72.5219L440.251 72.4519ZM441.21 72.4477L441.21 72.5177L441.28 72.5174L441.28 72.4474L441.21 72.4477ZM440.915 3.84041L440.914 3.77041L440.844 3.77071L440.845 3.84071L440.915 3.84041ZM463.803 3.74186L464.272 112.832L464.412 112.831L463.943 3.74125L463.803 3.74186ZM464.342 112.761L444.42 112.847L444.421 112.987L464.343 112.901L464.342 112.761ZM444.478 112.877L396.722 44.421L396.607 44.5011L444.363 112.957L444.478 112.877ZM396.664 44.391L395.865 44.3945L395.866 44.5345L396.665 44.531L396.664 44.391ZM395.795 44.4648L396.091 113.125L396.231 113.125L395.935 44.4642L395.795 44.4648ZM396.161 113.055L373.096 113.154L373.097 113.294L396.161 113.195L396.161 113.055ZM373.167 113.224L372.697 4.13416L372.557 4.13476L373.027 113.225L373.167 113.224ZM372.627 4.20446L392.869 4.1173L392.868 3.9773L372.627 4.06446L372.627 4.20446ZM392.811 4.08716L440.194 72.4917L440.309 72.412L392.926 4.00744L392.811 4.08716ZM440.252 72.5219L441.21 72.5177L441.21 72.3777L440.251 72.3819L440.252 72.5219ZM441.28 72.4474L440.985 3.84011L440.845 3.84071L441.14 72.448L441.28 72.4474ZM440.915 3.91041L463.873 3.81155L463.872 3.67155L440.914 3.77041L440.915 3.91041ZM518.115 112.6L518.045 112.6L518.045 112.67L518.115 112.67L518.115 112.6ZM517.645 3.51001L517.645 3.44001L517.575 3.44031L517.575 3.51031L517.645 3.51001ZM540.71 3.41069L540.78 3.41039L540.779 3.34039L540.709 3.34069L540.71 3.41069ZM541.097 93.4844L541.027 93.4847L541.028 93.5547L541.098 93.5544L541.097 93.4844ZM587.865 93.2831L587.935 93.2828L587.935 93.2128L587.865 93.2131L587.865 93.2831ZM587.947 112.299L587.948 112.369L588.018 112.369L588.017 112.299L587.947 112.299ZM518.185 112.6L517.715 3.50971L517.575 3.51031L518.045 112.6L518.185 112.6ZM517.645 3.58001L540.71 3.48069L540.709 3.34069L517.645 3.44001L517.645 3.58001ZM540.64 3.41099L541.027 93.4847L541.167 93.4841L540.78 3.41039L540.64 3.41099ZM541.098 93.5544L587.866 93.3531L587.865 93.2131L541.097 93.4144L541.098 93.5544ZM587.795 93.2834L587.877 112.3L588.017 112.299L587.935 93.2828L587.795 93.2834ZM587.947 112.229L518.115 112.53L518.115 112.67L587.948 112.369L587.947 112.229ZM625.816 3.04422L625.886 3.04392L625.886 2.97392L625.816 2.97422L625.816 3.04422ZM626.286 112.134L626.286 112.204L626.356 112.204L626.356 112.134L626.286 112.134ZM603.222 112.233L603.152 112.234L603.152 112.304L603.222 112.303L603.222 112.233ZM602.752 3.14354L602.751 3.07354L602.681 3.07384L602.682 3.14384L602.752 3.14354ZM625.746 3.04452L626.216 112.134L626.356 112.134L625.886 3.04392L625.746 3.04452ZM626.286 112.064L603.221 112.163L603.222 112.303L626.286 112.204L626.286 112.064ZM603.291 112.233L602.822 3.14324L602.682 3.14384L603.152 112.234L603.291 112.233ZM602.752 3.21354L625.816 3.11422L625.816 2.97422L602.751 3.07354L602.752 3.21354ZM644.792 2.96251L644.792 2.89251L644.722 2.89281L644.722 2.96281L644.792 2.96251ZM673.237 2.84003L673.301 2.8132L673.283 2.76983L673.236 2.77003L673.237 2.84003ZM703.595 76.0054L703.53 76.0323L703.548 76.0756L703.595 76.0754L703.595 76.0054ZM704.873 75.9999L704.873 76.0699L704.92 76.0697L704.938 76.0262L704.873 75.9999ZM734.6 2.5758L734.599 2.5058L734.553 2.506L734.535 2.54953L734.6 2.5758ZM763.044 2.45332L763.114 2.45302L763.114 2.38302L763.044 2.38332L763.044 2.45332ZM763.514 111.543L763.514 111.613L763.584 111.613L763.584 111.543L763.514 111.543ZM741.142 111.64L741.072 111.64L741.072 111.71L741.142 111.71L741.142 111.64ZM740.836 40.6352L740.906 40.6349L740.906 40.5649L740.836 40.5652L740.836 40.6352ZM739.931 40.6391L739.93 40.5691L739.883 40.5693L739.866 40.6134L739.931 40.6391ZM712.003 111.232L712.003 111.302L712.05 111.302L712.068 111.258L712.003 111.232ZM696.769 111.298L696.704 111.324L696.721 111.368L696.769 111.368L696.769 111.298ZM668.233 40.6815L668.298 40.6553L668.28 40.6113L668.232 40.6115L668.233 40.6815ZM667.327 40.6854L667.327 40.6154L667.257 40.6157L667.257 40.6857L667.327 40.6854ZM667.634 111.956L667.634 112.026L667.704 112.026L667.704 111.956L667.634 111.956ZM645.262 112.052L645.192 112.053L645.192 112.123L645.262 112.122L645.262 112.052ZM644.793 3.03251L673.237 2.91003L673.236 2.77003L644.792 2.89251L644.793 3.03251ZM673.172 2.86686L703.53 76.0323L703.659 75.9786L673.301 2.8132L673.172 2.86686ZM703.595 76.0754L704.873 76.0699L704.873 75.9299L703.594 75.9354L703.595 76.0754ZM704.938 76.0262L734.665 2.60207L734.535 2.54953L704.808 75.9737L704.938 76.0262ZM734.6 2.6458L763.044 2.52332L763.044 2.38332L734.599 2.5058L734.6 2.6458ZM762.974 2.45362L763.444 111.544L763.584 111.543L763.114 2.45302L762.974 2.45362ZM763.514 111.473L741.142 111.57L741.142 111.71L763.514 111.613L763.514 111.473ZM741.212 111.639L740.906 40.6349L740.766 40.6355L741.072 111.64L741.212 111.639ZM740.836 40.5652L739.93 40.5691L739.931 40.7091L740.836 40.7052L740.836 40.5652ZM739.866 40.6134L711.938 111.207L712.068 111.258L739.996 40.6649L739.866 40.6134ZM712.003 111.162L696.768 111.228L696.769 111.368L712.003 111.302L712.003 111.162ZM696.833 111.272L668.298 40.6553L668.168 40.7078L696.704 111.324L696.833 111.272ZM668.232 40.6115L667.327 40.6154L667.327 40.7554L668.233 40.7515L668.232 40.6115ZM667.257 40.6857L667.564 111.956L667.704 111.956L667.397 40.6851L667.257 40.6857ZM667.634 111.886L645.262 111.982L645.262 112.122L667.634 112.026L667.634 111.886ZM645.332 112.052L644.862 2.96221L644.722 2.96281L645.192 112.053L645.332 112.052Z" fill="#94A3B8" fill-opacity="0.2"/>
</svg>
